<mxfile host="app.diagrams.net" modified="2024-01-28T07:24:17.020Z" agent="Mozilla/5.0 (Windows NT 10.0; Win64; x64) AppleWebKit/537.36 (KHTML, like Gecko) Chrome/120.0.0.0 Safari/537.36 Edg/120.0.0.0" etag="3PIbNvJpvxEPh6zMh6Ks" version="23.0.2" type="github">
  <diagram name="第 1 页" id="eNk743Lgy3ztg70Z9EB9">
    <mxGraphModel dx="2224" dy="772" grid="1" gridSize="10" guides="1" tooltips="1" connect="1" arrows="1" fold="1" page="1" pageScale="1" pageWidth="827" pageHeight="1169" math="0" shadow="0">
      <root>
        <mxCell id="0" />
        <mxCell id="1" parent="0" />
        <mxCell id="QoKt7XNXczLMYl_EDJtm-24" style="edgeStyle=orthogonalEdgeStyle;rounded=0;orthogonalLoop=1;jettySize=auto;html=1;entryX=0.5;entryY=0;entryDx=0;entryDy=0;" edge="1" parent="1" source="QoKt7XNXczLMYl_EDJtm-15" target="QoKt7XNXczLMYl_EDJtm-21">
          <mxGeometry relative="1" as="geometry" />
        </mxCell>
        <mxCell id="QoKt7XNXczLMYl_EDJtm-15" value="Move and save the movement to FSavedMove" style="rounded=0;whiteSpace=wrap;html=1;horizontal=1;verticalAlign=top;align=center;" vertex="1" parent="1">
          <mxGeometry x="11.25" y="245" width="657.5" height="385" as="geometry" />
        </mxCell>
        <mxCell id="QoKt7XNXczLMYl_EDJtm-2" style="edgeStyle=orthogonalEdgeStyle;rounded=0;orthogonalLoop=1;jettySize=auto;html=1;" edge="1" parent="1" source="QoKt7XNXczLMYl_EDJtm-1" target="QoKt7XNXczLMYl_EDJtm-15">
          <mxGeometry relative="1" as="geometry">
            <mxPoint x="350" y="350" as="targetPoint" />
          </mxGeometry>
        </mxCell>
        <mxCell id="QoKt7XNXczLMYl_EDJtm-1" value="Prepare Input Data" style="rounded=0;whiteSpace=wrap;html=1;" vertex="1" parent="1">
          <mxGeometry x="280" y="120" width="120" height="60" as="geometry" />
        </mxCell>
        <mxCell id="QoKt7XNXczLMYl_EDJtm-9" style="edgeStyle=orthogonalEdgeStyle;rounded=0;orthogonalLoop=1;jettySize=auto;html=1;entryX=0.5;entryY=0;entryDx=0;entryDy=0;" edge="1" parent="1" source="QoKt7XNXczLMYl_EDJtm-3">
          <mxGeometry relative="1" as="geometry">
            <mxPoint x="336" y="600" as="targetPoint" />
          </mxGeometry>
        </mxCell>
        <mxCell id="QoKt7XNXczLMYl_EDJtm-3" value="Movement Tick&lt;br&gt;PerformMovement()" style="rounded=0;whiteSpace=wrap;html=1;fillColor=#d5e8d4;strokeColor=#82b366;" vertex="1" parent="1">
          <mxGeometry x="276" y="467.5" width="120" height="60" as="geometry" />
        </mxCell>
        <mxCell id="QoKt7XNXczLMYl_EDJtm-4" value="" style="shape=curlyBracket;whiteSpace=wrap;html=1;rounded=1;flipH=1;labelPosition=right;verticalLabelPosition=middle;align=left;verticalAlign=middle;size=0.3333333333333333;dashed=1;" vertex="1" parent="1">
          <mxGeometry x="336" y="420" width="150" height="155" as="geometry" />
        </mxCell>
        <mxCell id="QoKt7XNXczLMYl_EDJtm-13" value="Save the neccessary data in the new FSavedMove" style="rounded=1;whiteSpace=wrap;html=1;" vertex="1" parent="1">
          <mxGeometry x="476" y="483.13" width="160" height="36.87" as="geometry" />
        </mxCell>
        <mxCell id="QoKt7XNXczLMYl_EDJtm-14" value="A FSavedMove contains inputs and movement related states before/after move tick" style="shape=callout;whiteSpace=wrap;html=1;perimeter=calloutPerimeter;" vertex="1" parent="1">
          <mxGeometry x="486" y="370" width="140" height="108" as="geometry" />
        </mxCell>
        <mxCell id="QoKt7XNXczLMYl_EDJtm-17" style="edgeStyle=orthogonalEdgeStyle;rounded=0;orthogonalLoop=1;jettySize=auto;html=1;entryX=0.5;entryY=0;entryDx=0;entryDy=0;" edge="1" parent="1" source="QoKt7XNXczLMYl_EDJtm-16" target="QoKt7XNXczLMYl_EDJtm-3">
          <mxGeometry relative="1" as="geometry" />
        </mxCell>
        <mxCell id="QoKt7XNXczLMYl_EDJtm-16" value="Create new FSavedMove and combine with previous saved move if possible" style="rounded=0;whiteSpace=wrap;html=1;" vertex="1" parent="1">
          <mxGeometry x="268.5" y="320" width="135" height="80" as="geometry" />
        </mxCell>
        <mxCell id="QoKt7XNXczLMYl_EDJtm-18" value="This is where the movement logic happens" style="shape=callout;whiteSpace=wrap;html=1;perimeter=calloutPerimeter;position2=1;" vertex="1" parent="1">
          <mxGeometry x="120" y="420" width="148.5" height="80" as="geometry" />
        </mxCell>
        <mxCell id="QoKt7XNXczLMYl_EDJtm-19" value="A history of past FSavedMoves is kept" style="shape=callout;whiteSpace=wrap;html=1;perimeter=calloutPerimeter;position2=1;" vertex="1" parent="1">
          <mxGeometry x="110" y="280" width="150" height="80" as="geometry" />
        </mxCell>
        <mxCell id="QoKt7XNXczLMYl_EDJtm-20" value="" style="endArrow=classic;html=1;rounded=0;entryX=0.5;entryY=0;entryDx=0;entryDy=0;" edge="1" parent="1" target="QoKt7XNXczLMYl_EDJtm-16">
          <mxGeometry width="50" height="50" relative="1" as="geometry">
            <mxPoint x="337" y="280" as="sourcePoint" />
            <mxPoint x="370" y="260" as="targetPoint" />
          </mxGeometry>
        </mxCell>
        <mxCell id="QoKt7XNXczLMYl_EDJtm-21" value="If neccessary, send FSavedMoves to server" style="rounded=0;whiteSpace=wrap;html=1;verticalAlign=top;" vertex="1" parent="1">
          <mxGeometry x="-30" y="720" width="740" height="310" as="geometry" />
        </mxCell>
        <mxCell id="QoKt7XNXczLMYl_EDJtm-23" value="Key type: FSavedMove" style="ellipse;whiteSpace=wrap;html=1;fillColor=#fff2cc;strokeColor=#d6b656;" vertex="1" parent="1">
          <mxGeometry x="496" y="280" width="120" height="40" as="geometry" />
        </mxCell>
        <mxCell id="QoKt7XNXczLMYl_EDJtm-25" value="Key types: FCharacterNetworkMoveDataContainer&lt;br&gt;FCharacterNetworkMoveData" style="ellipse;whiteSpace=wrap;html=1;fillColor=#fff2cc;strokeColor=#d6b656;" vertex="1" parent="1">
          <mxGeometry x="424" y="750" width="264" height="50" as="geometry" />
        </mxCell>
        <mxCell id="QoKt7XNXczLMYl_EDJtm-26" value="Sending at most three FSavedMoves using&amp;nbsp;FCharacterNetworkMoveDataContainer&lt;br&gt;CallServerMovePacked()&lt;span style=&quot;background-color: initial;&quot;&gt;&amp;nbsp;&lt;/span&gt;" style="rounded=0;whiteSpace=wrap;html=1;" vertex="1" parent="1">
          <mxGeometry x="215" y="860" width="250" height="80" as="geometry" />
        </mxCell>
        <mxCell id="QoKt7XNXczLMYl_EDJtm-27" value="Important moves are:&lt;br&gt;1. Old move: latest unacknowledged important move&lt;br&gt;2. New move: latest move&lt;br&gt;3. Pending move: move before new move that can not be combined and not sent yet" style="shape=callout;whiteSpace=wrap;html=1;perimeter=calloutPerimeter;align=left;position2=1;" vertex="1" parent="1">
          <mxGeometry x="-10" y="760" width="220" height="130" as="geometry" />
        </mxCell>
        <mxCell id="QoKt7XNXczLMYl_EDJtm-28" value="" style="endArrow=classic;html=1;rounded=0;entryX=0.5;entryY=0;entryDx=0;entryDy=0;" edge="1" parent="1" target="QoKt7XNXczLMYl_EDJtm-26">
          <mxGeometry width="50" height="50" relative="1" as="geometry">
            <mxPoint x="341" y="815" as="sourcePoint" />
            <mxPoint x="370" y="770" as="targetPoint" />
          </mxGeometry>
        </mxCell>
        <mxCell id="QoKt7XNXczLMYl_EDJtm-29" value="" style="endArrow=classic;html=1;rounded=0;exitX=0.5;exitY=1;exitDx=0;exitDy=0;" edge="1" parent="1" source="QoKt7XNXczLMYl_EDJtm-26">
          <mxGeometry width="50" height="50" relative="1" as="geometry">
            <mxPoint x="440" y="1140" as="sourcePoint" />
            <mxPoint x="341" y="985" as="targetPoint" />
          </mxGeometry>
        </mxCell>
        <mxCell id="QoKt7XNXczLMYl_EDJtm-30" value="Client - Autonomous Proxy" style="text;html=1;strokeColor=none;fillColor=none;align=center;verticalAlign=middle;whiteSpace=wrap;rounded=0;fontSize=18;" vertex="1" parent="1">
          <mxGeometry x="197.5" y="30" width="285" height="70" as="geometry" />
        </mxCell>
        <mxCell id="QoKt7XNXczLMYl_EDJtm-31" value="" style="endArrow=none;dashed=1;html=1;dashPattern=1 3;strokeWidth=2;rounded=0;" edge="1" parent="1">
          <mxGeometry width="50" height="50" relative="1" as="geometry">
            <mxPoint x="760" y="10" as="sourcePoint" />
            <mxPoint x="760" y="1130" as="targetPoint" />
          </mxGeometry>
        </mxCell>
        <mxCell id="QoKt7XNXczLMYl_EDJtm-32" value="Server" style="text;html=1;strokeColor=none;fillColor=none;align=center;verticalAlign=middle;whiteSpace=wrap;rounded=0;fontSize=18;" vertex="1" parent="1">
          <mxGeometry x="1000" y="40" width="210" height="70" as="geometry" />
        </mxCell>
      </root>
    </mxGraphModel>
  </diagram>
</mxfile>
